<?xml version="1.0" encoding="UTF-8"?>
<svg version="1.1" xmlns="http://www.w3.org/2000/svg" width="1920" height="1080">
<path d="M0 0 C0.99 0.33 1.98 0.66 3 1 C2.90912109 1.76030518 2.81824219 2.52061035 2.72460938 3.30395508 C2.30981319 6.80605803 1.90485423 10.30923436 1.5 13.8125 C1.35691406 15.00810547 1.21382813 16.20371094 1.06640625 17.43554688 C-6.56016111 84.07721877 21.51224907 154.99538597 62.41015625 206.56640625 C70.17593335 216.23109125 78.43895824 225.45922366 86.8125 234.59765625 C89.25254772 237.27735152 91.62595641 240.00863633 93.99609375 242.75 C95.67171658 244.63140108 97.37326227 246.47617257 99.09765625 248.3125 C99.64695801 248.89918457 100.19625977 249.48586914 100.76220703 250.09033203 C101.86697019 251.26722196 102.97594006 252.44017903 104.08935547 253.60888672 C108 257.77882805 108 257.77882805 108 260 C108.66 260 109.32 260 110 260 C111.41372681 261.436203 111.41372681 261.436203 113.06884766 263.44213867 C117.10959949 268.19070286 121.4596786 272.55137889 125.8984375 276.92578125 C127.61211771 278.62681357 129.32565492 280.32798995 131.0390625 282.02929688 C133.70505504 284.67054987 136.37263134 287.31016103 139.04296875 289.94702148 C157.34824862 308.03768074 157.34824862 308.03768074 165 318 C166.97375075 320.37687367 168.98435672 322.72110683 171 325.0625 C171.50853516 325.65409912 172.01707031 326.24569824 172.54101562 326.85522461 C176.95253718 331.97217343 181.43911179 337.01554672 186 342 C186.48001465 342.52513184 186.9600293 343.05026367 187.45458984 343.59130859 C189.02999172 345.3129378 190.60816141 347.03198183 192.1875 348.75 C192.67476562 349.28117432 193.16203125 349.81234863 193.6640625 350.35961914 C196.16599619 353.07131861 198.71123299 355.6998791 201.36328125 358.265625 C204 361 204 361 204 363 C204.66 363 205.32 363 206 363 C206 363.66 206 364.32 206 365 C206.66 365 207.32 365 208 365 C209.2065625 366.4540625 209.2065625 366.4540625 210.4375 367.9375 C216.90920382 375.72867742 225.53202882 381.51874606 233.78515625 387.2734375 C236 389 236 389 238 392 C238.75856989 398.36501176 236.09800819 401.37583925 232.36328125 406.23828125 C227.08151655 412.41052529 221.49417626 418.60978709 213.0859375 419.33984375 C206.69580358 419.18223955 200.73011633 417.32167766 194.625 415.5625 C193.37162842 415.20994141 192.11825684 414.85738281 190.8269043 414.49414062 C178.49249532 410.98964053 166.35291087 406.91742691 154.24536133 402.69921875 C152.07369321 401.90089228 152.07369321 401.90089228 150 402 C162.37820507 408.32625716 175.14528306 413.58321518 188.0625 418.6875 C188.86085266 419.00470001 189.65920532 419.32190002 190.48175049 419.64871216 C199.17303999 423.0949434 207.9064118 426.40928086 216.74609375 429.45703125 C217.47280777 429.71506027 218.19952179 429.97308929 218.94825745 430.23893738 C226.3274225 432.7227208 232.32196243 432.49066242 239.45703125 429.37109375 C250.69673557 423.31097668 260.20682172 409.73003932 265 398 C265 396.68 265 395.36 265 394 C264.4423999 393.71914551 263.8847998 393.43829102 263.31030273 393.14892578 C243.98389979 383.36164622 227.00884551 372.52398249 211.03125 357.78515625 C209.1231855 355.95554062 209.1231855 355.95554062 207 355 C207 354.34 207 353.68 207 353 C206.34 353 205.68 353 205 353 C205 352.34 205 351.68 205 351 C204.1646875 350.6596875 204.1646875 350.6596875 203.3125 350.3125 C200.33840412 348.62449964 198.27991135 346.53323483 196 344 C196 343.34 196 342.68 196 342 C195.34 342 194.68 342 194 342 C192.73046875 340.77734375 192.73046875 340.77734375 191.1875 338.9375 C190.56746094 338.20660156 189.94742187 337.47570312 189.30859375 336.72265625 C188.54675781 335.82417969 187.78492188 334.92570312 187 334 C186.01364478 332.87201082 185.0252153 331.7458334 184.03515625 330.62109375 C177.98302313 323.72983389 172.10453241 316.75325018 166.51464844 309.47998047 C164.8257469 307.28751927 163.17609875 305.17228709 161.1953125 303.234375 C160 302 160 302 160 300 C165.25718247 301.50678301 169.6154641 303.91001226 174.3125 306.625 C182.31978727 311.16490847 190.4650716 315.24127539 198.85571289 319.02148438 C200.36051367 319.7081793 201.8564917 320.41438258 203.34545898 321.13476562 C211.7199384 325.1159069 220.39226826 327.99057983 229.1875 330.875 C229.98135101 331.13701202 230.77520203 331.39902405 231.59310913 331.66897583 C281.48409311 348.1272825 328.24720079 360.22895592 378 337 C369.84841716 336.70727483 362.26800574 337.59942837 354.25 339 C287.7581949 349.803401 211.25139906 317.34434561 158.12109375 279.48291016 C143.82863684 269.15427249 130.27745875 257.8926142 117.2421875 246.0234375 C115.29539507 244.26657604 113.31464118 242.56779748 111.3125 240.875 C100.94316422 231.81236913 91.47525387 221.84181691 83 211 C82.03780065 209.82465309 81.0727746 208.65161661 80.10546875 207.48046875 C73.41896475 199.34585781 67.39739705 191.04198088 62 182 C61.6277832 181.38044434 61.25556641 180.76088867 60.87207031 180.12255859 C43.28377241 150.5913116 33.09124485 120.84592073 41.5859375 86.640625 C45.92325383 70.04101928 51.89002571 52.0332479 62 38 C62.721875 36.989375 63.44375 35.97875 64.1875 34.9375 C71.49605867 29.90271514 84.34743787 31.69806379 92.9375 31.4375 C94.19884766 31.39431641 95.46019531 31.35113281 96.75976562 31.30664062 C114.42255427 30.74830862 132.03564842 30.93823856 149.6875 31.75 C151.09556412 31.81435242 151.09556412 31.81435242 152.53207397 31.88000488 C185.60474807 33.43241623 218.26485398 37.12973916 250.90411377 42.64581299 C252.8586256 42.97610892 254.81380982 43.30241913 256.76904297 43.62841797 C312.32364259 52.99803939 366.99878382 69.42399804 419 91 C420.76802979 91.73355713 420.76802979 91.73355713 422.57177734 92.48193359 C437.4089031 98.68568576 452.01829248 105.31958891 466.5 112.3125 C467.17888275 112.63898529 467.8577655 112.96547058 468.55722046 113.30184937 C477.93648014 117.82501516 487.02305366 122.72369358 496 128 C494.7466114 140.15144679 492.86784958 152.08024209 490.5 164.0625 C490.32804108 164.93828705 490.15608215 165.8140741 489.97891235 166.71640015 C479.5022351 219.77466256 463.27711183 270.91108425 443 321 C442.62746094 321.92296875 442.25492188 322.8459375 441.87109375 323.796875 C438.01553204 333.3006212 433.84927714 342.55167855 429.17578125 351.6796875 C427.10600918 355.74296184 425.16817179 359.86274087 423.23144531 363.99072266 C413.8778122 383.87981941 403.42419523 403.22402435 392 422 C391.52804199 422.78052734 391.05608398 423.56105469 390.56982422 424.36523438 C377.95402155 445.18640401 364.48533127 465.43258179 350 485 C349.4951709 485.68497559 348.9903418 486.36995117 348.47021484 487.07568359 C341.21368846 496.90868452 333.69867283 506.51022997 326 516 C324.84564453 517.43085937 324.84564453 517.43085937 323.66796875 518.890625 C315.04826202 529.51383114 306.15141128 539.88698968 296.84790039 549.91674805 C295.10023949 551.80336024 293.36800189 553.70040014 291.64501953 555.60986328 C284.20653618 563.84008474 276.45213225 571.73406215 268.6081543 579.57714844 C266.40451163 581.78302176 264.20904948 583.99684169 262.01367188 586.2109375 C260.61246646 587.61506978 259.21079178 589.01873397 257.80859375 590.421875 C257.15346298 591.08419128 256.49833221 591.74650757 255.823349 592.42889404 C255.21834061 593.03082581 254.61333221 593.63275757 253.98999023 594.25292969 C253.45913315 594.78521179 252.92827606 595.3174939 252.3813324 595.86590576 C251 597 251 597 249 597 C249 597.66 249 598.32 249 599 C247.63671875 600.375 247.63671875 600.375 245.6875 602 C242.28352552 604.88858397 238.96917602 607.84793678 235.6875 610.875 C231.19851943 614.96880209 226.58756524 618.85469667 221.859375 622.66796875 C219.36211518 624.70466835 216.90805644 626.78300913 214.46533203 628.88452148 C206.94532496 635.34129145 199.11879118 641.34857122 191.21142578 647.32080078 C188.98372669 649.01235679 186.76944923 650.72009559 184.55859375 652.43359375 C177.40673985 657.96887287 170.24566395 663.33062828 162.66015625 668.26171875 C160.22905341 669.85032486 157.86227265 671.49898859 155.5 673.1875 C147.17604898 679.05057374 138.56881393 684.50440406 130 690 C128.94522461 690.67820801 128.94522461 690.67820801 127.86914062 691.37011719 C126.06388503 692.52624126 124.25264399 693.67198321 122.4375 694.8125 C121.44621094 695.43769531 120.45492188 696.06289063 119.43359375 696.70703125 C117 698 117 698 114 698 C112.73242188 696.49731445 112.73242188 696.49731445 111.46875 694.36328125 C110.99381104 693.57002441 110.51887207 692.77676758 110.02954102 691.95947266 C109.52479248 691.08597168 109.02004395 690.2124707 108.5 689.3125 C107.96882568 688.4054834 107.43765137 687.4984668 106.89038086 686.56396484 C105.24016858 683.72025828 103.6148284 680.86393256 102 678 C101.52965332 677.16678223 101.05930664 676.33356445 100.57470703 675.47509766 C61.36679534 605.17272078 37.04931043 522.27311079 57.83349609 442.81347656 C62.20545653 427.45917198 67.92478214 413.14587315 79.49511719 401.85327148 C80.72949309 400.63221776 81.87243782 399.32032557 83 398 C83 396.68 83 395.36 83 394 C81.25809344 392.29340852 81.25809344 392.29340852 78.9375 390.8125 C72.35761223 385.99415699 68.09088892 379.98145714 64 373 C63.88785156 374.15628906 63.77570313 375.31257813 63.66015625 376.50390625 C62.39175927 387.77418997 59.97212524 398.51429163 56.75 409.375 C56.55266266 410.0405188 56.35532532 410.7060376 56.15200806 411.39172363 C54.17908049 418.010358 52.134299 424.60507475 50.03125 431.18359375 C45.54732676 445.2884907 42.41710691 459.39747806 40 474 C39.86722656 474.79019531 39.73445313 475.58039063 39.59765625 476.39453125 C33.16571887 515.925652 43.96027815 558.31385658 55.40423584 596.0357666 C55.81266844 597.38236816 56.21884517 598.72965539 56.62310791 600.07751465 C63.67218552 623.5548722 72.7791625 645.22731802 84 667 C85.16369459 669.26835665 86.32292325 671.53901292 87.4765625 673.8125 C87.96463379 674.76769531 88.45270508 675.72289062 88.95556641 676.70703125 C90 679 90 679 90 681 C85.96395732 679.55370128 82.65604435 677.60060388 79.09765625 675.21875 C78.26572754 674.66410316 78.26572754 674.66410316 77.41699219 674.09825134 C75.62880118 672.90376536 73.84544942 671.70229299 72.0625 670.5 C70.83202568 669.67444755 69.60147532 668.84900841 68.37084961 668.02368164 C55.97967699 659.69666778 43.88851744 651.03340105 32 642 C30.99710937 641.24332031 29.99421875 640.48664062 28.9609375 639.70703125 C15.10388771 629.16810877 1.78244781 617.97378072 -11.29003906 606.48046875 C-12.50797855 605.42598773 -13.74084713 604.38864609 -14.98339844 603.36328125 C-15.62567383 602.83089844 -16.26794922 602.29851563 -16.9296875 601.75 C-17.51733887 601.27046875 -18.10499023 600.7909375 -18.71044922 600.296875 C-20 599 -20 599 -20 597 C-20.55324951 596.77199707 -21.10649902 596.54399414 -21.67651367 596.30908203 C-24.672429 594.62114486 -26.74942522 592.49214464 -29.17578125 590.0546875 C-29.66402878 589.56598175 -30.15227631 589.077276 -30.65531921 588.57376099 C-31.68722198 587.53884333 -32.71669944 586.50150249 -33.74389648 585.46191406 C-35.29174892 583.89599331 -36.8472635 582.33803642 -38.40429688 580.78125 C-43.28936737 575.87854087 -48.07275836 570.92400633 -52.57543945 565.66308594 C-54.47108804 563.45003398 -56.45733243 561.32488314 -58.4375 559.1875 C-66.54412386 550.13856773 -73.71967431 541.57721229 -74.375 529 C-73.74327556 518.82236701 -68.77108882 510.52239399 -63.6875 501.9375 C-62.60055621 500.07482264 -61.517334 498.21001056 -60.43408203 496.34518433 C-59.69834606 495.07942589 -58.96136269 493.81439172 -58.22314453 492.55007935 C-54.69070685 486.49605448 -51.27715467 480.3780564 -47.875 474.25 C-42.74565617 465.04004941 -37.46915995 455.92588404 -32.12646484 446.83837891 C-27.61776919 439.13703242 -23.2987021 431.34426631 -19.08154297 423.47973633 C-16.35620228 418.41134477 -13.50085609 413.45330154 -10.51806641 408.53222656 C-7.90551842 404.17433853 -5.42692755 399.7414955 -2.9375 395.3125 C-1.79168474 393.27993773 -0.64585087 391.24738594 0.5 389.21484375 C1.08007812 388.18472168 1.66015625 387.15459961 2.2578125 386.09326172 C5.02223218 381.18502219 7.79163808 376.279605 10.5625 371.375 C11.10076416 370.42214111 11.63902832 369.46928223 12.19360352 368.48754883 C16.26588086 361.28463553 20.36684699 354.09845215 24.47851562 346.91796875 C27.08284692 342.36637792 29.67650702 337.80909091 32.25390625 333.2421875 C33.07338745 331.79017944 33.07338745 331.79017944 33.90942383 330.30883789 C35.00383176 328.36651031 36.0961481 326.4230026 37.1862793 324.47827148 C39.81097761 319.80935612 42.47693249 315.17862245 45.265625 310.60546875 C45.77923584 309.75355957 46.29284668 308.90165039 46.82202148 308.02392578 C47.78330762 306.43642589 48.75844713 304.85719323 49.75024414 303.28857422 C52.78923421 298.24203655 53.49789039 294.88838363 53 289 C52.34 289 51.68 289 51 289 C51 288.34 51 287.68 51 287 C49.95779297 286.61521484 49.95779297 286.61521484 48.89453125 286.22265625 C45.65629771 284.85481941 42.72642476 283.20514719 39.6875 281.4375 C35.77502998 279.16344236 31.85835686 276.90924651 27.87890625 274.75390625 C19.95014324 270.44026269 12.88376831 265.89656123 6 260 C5.25234375 259.47148437 4.5046875 258.94296875 3.734375 258.3984375 C3.16203125 257.93695313 2.5896875 257.47546875 2 257 C2 256.34 2 255.68 2 255 C1.34 255 0.68 255 0 255 C-11.30131313 243.30009284 -18.69545333 228.36548903 -26 214 C-26.56589844 212.89398438 -27.13179687 211.78796875 -27.71484375 210.6484375 C-28.18019531 209.69195312 -28.64554688 208.73546875 -29.125 207.75 C-29.51945313 206.94046875 -29.91390625 206.1309375 -30.3203125 205.296875 C-31.14234567 202.51896979 -30.77282579 200.7586946 -30 198 C-28.08329274 198.14529878 -26.16663703 198.29127769 -24.25 198.4375 C-23.18265625 198.51871094 -22.1153125 198.59992188 -21.015625 198.68359375 C-15.67509644 199.09784556 -10.33777182 199.55188669 -5 200 C-9.0337419 198.64704392 -13.06819943 197.29624793 -17.10327148 195.94726562 C-18.46967057 195.49014535 -19.83588822 195.03248229 -21.2019043 194.57421875 C-30.09881753 191.59003895 -39.01535413 188.71140524 -48 186 C-45.93577415 193.68155761 -43.07020898 200.81555385 -39.8125 208.0625 C-39.32201172 209.16158691 -38.83152344 210.26067383 -38.32617188 211.39306641 C-36.89108394 214.59856511 -35.44603756 217.79942996 -34 221 C-33.44771729 222.2387085 -33.44771729 222.2387085 -32.88427734 223.50244141 C-21.63048019 248.72570972 -8.15191415 270.99326661 15.31738281 286.5144043 C18.87529651 288.92537231 21.29499683 291.00888771 23 295 C19.79563692 309.78936807 10.42690786 324.16902336 3.36816406 337.41650391 C1.43410555 341.06857515 -0.46557289 344.73819435 -2.36767578 348.40698242 C-7.25705816 357.83175399 -12.24270391 367.19621054 -17.35229492 376.50341797 C-20.11241381 381.53233038 -22.84828118 386.57265692 -25.55078125 391.6328125 C-31.19138906 402.19172747 -36.85581203 412.67974155 -43.11328125 422.88671875 C-45.91074073 427.50281649 -48.45219778 432.24340411 -51 437 C-55.01435947 444.46894483 -59.194917 451.82028204 -63.5 459.125 C-69.12301447 468.70927306 -74.59368418 478.36971125 -79.99853516 488.07836914 C-84.86361478 496.80069253 -89.88080492 505.42475848 -95 514 C-99.00370687 510.83467619 -102.11838646 507.85549171 -105.125 503.6875 C-105.89585937 502.63175781 -106.66671875 501.57601563 -107.4609375 500.48828125 C-107.87053711 499.92318848 -108.28013672 499.3580957 -108.70214844 498.77587891 C-110.52390731 496.28312608 -112.38798868 493.82322237 -114.25048828 491.36083984 C-116.8494381 487.91898738 -119.42441425 484.45934955 -122 481 C-122.51046875 480.31728027 -123.0209375 479.63456055 -123.546875 478.93115234 C-132.72759729 466.6119445 -141.05193144 453.80840246 -149.23144531 440.80712891 C-150.71504095 438.45229972 -152.20891405 436.10480606 -153.7109375 433.76171875 C-167.44669331 412.23808021 -179.57309542 389.81478436 -191 367 C-191.3164447 366.36946716 -191.6328894 365.73893433 -191.95892334 365.08929443 C-201.50505136 346.04718261 -210.14106416 326.80712005 -218 307 C-218.63881104 305.41155273 -218.63881104 305.41155273 -219.29052734 303.79101562 C-239.38102835 253.75666069 -253.84531158 201.3508612 -263.375 148.3125 C-263.62672974 146.94194458 -263.62672974 146.94194458 -263.88354492 145.54370117 C-264.85047631 139.94823152 -265.1495865 134.67853372 -265 129 C-256.5391155 124.36929757 -248.0144288 119.98669594 -239.26318359 115.92944336 C-234.86114856 113.88610472 -230.51273926 111.76573221 -226.1875 109.5625 C-214.04496849 103.44926697 -201.63854492 97.8432107 -188.8984375 93.09375 C-186.10970641 92.04139865 -183.36892805 90.91361419 -180.625 89.75 C-178.41772959 88.83077685 -176.20923263 87.91449717 -174 87 C-173.29907227 86.70673828 -172.59814453 86.41347656 -171.87597656 86.11132812 C-130.15381731 68.78085328 -84.75100574 55.03741179 -40.15820312 47.52099609 C-39.26166016 47.3658252 -38.36511719 47.2106543 -37.44140625 47.05078125 C-36.64806885 46.92485596 -35.85473145 46.79893066 -35.03735352 46.66918945 C-31.79727496 45.60495274 -30.77306585 43.51829494 -29.2578125 40.59375 C-28.84273437 39.7378125 -28.42765625 38.881875 -28 38 C-26.76547848 35.73945392 -25.51983688 33.49044005 -24.25 31.25 C-23.91009033 30.64728271 -23.57018066 30.04456543 -23.2199707 29.42358398 C-19.65980002 23.21786525 -15.45224858 17.59539349 -11 12 C-10.59007812 11.48179687 -10.18015625 10.96359375 -9.7578125 10.4296875 C-2.4625 1.23125 -2.4625 1.23125 0 0 Z " fill="#FDFDFD" transform="translate(329,191)"/>
<path d="M0 0 C12.4575 -0.04125 24.915 -0.0825 37.75 -0.125 C41.64006836 -0.14320801 45.53013672 -0.16141602 49.53808594 -0.18017578 C54.39892578 -0.18920898 54.39892578 -0.18920898 56.69586182 -0.19088745 C58.25332798 -0.19389895 59.8107904 -0.20080332 61.3682251 -0.21115112 C70.54331899 -0.26890362 79.59535199 0.00793978 88.73144531 0.90283203 C89.55064327 0.98263746 90.36984123 1.06244289 91.21386337 1.14466667 C101.13538552 2.209156 111.27635666 3.98023264 118 12 C121.80442442 17.32619418 122.1259557 23.60984771 122 30 C120.93397228 36.30301828 118.06320421 39.33725653 113 43 C112.01 43.99 112.01 43.99 111 45 C111.81984375 45.37511719 112.6396875 45.75023437 113.484375 46.13671875 C114.56203125 46.64847656 115.6396875 47.16023437 116.75 47.6875 C117.81734375 48.18636719 118.8846875 48.68523438 119.984375 49.19921875 C124.19912736 51.71605922 126.44935405 54.34806214 128 59 C128.53144099 65.51015211 127.67101102 72.5202662 123.59375 77.83203125 C109.59161148 90.87647633 85.43696923 89.4463959 67.67578125 89.29296875 C65.92785939 89.28854002 64.1799335 89.28549055 62.43200684 89.28381348 C56.05877593 89.26829186 49.68563103 89.22641025 43.3125 89.1875 C21.8728125 89.0946875 21.8728125 89.0946875 0 89 C0 59.63 0 30.26 0 0 Z M38 23 C38 27.62 38 32.24 38 37 C42.55348187 37.04615015 47.10613775 37.08590238 51.65966797 37.10986328 C53.20559453 37.11986197 54.75150246 37.13346538 56.29736328 37.15087891 C58.53162255 37.17539951 60.76562975 37.18654451 63 37.1953125 C63.68054443 37.20563507 64.36108887 37.21595764 65.06225586 37.22659302 C70.50504487 37.22783862 76.34857015 36.74000084 81 33.6875 C82.4397827 31.25786669 82.48461324 29.76921852 82 27 C78.35793377 23.22304243 74.2736872 23.03824763 69.21948242 22.88647461 C67.76480159 22.88663149 66.31011419 22.89219495 64.85546875 22.90234375 C64.08568192 22.9037587 63.31589508 22.90517365 62.52278137 22.90663147 C60.07764712 22.91220394 57.63260632 22.92475129 55.1875 22.9375 C53.52408987 22.94251856 51.8606783 22.94708085 50.19726562 22.95117188 C46.13147472 22.96216434 42.06575317 22.9794099 38 23 Z M38 53 C38 57.62 38 62.24 38 67 C42.80141735 67.04989482 47.60267969 67.08595085 52.40429688 67.10986328 C54.03355543 67.1198449 55.66279644 67.13343499 57.29199219 67.15087891 C70.38799985 67.73587123 70.38799985 67.73587123 83 65 C85.15502531 61.76746204 85.46856135 60.74849077 85 57 C83.02522713 54.23531798 81.24565598 53.64802936 78 53 C76.62663535 52.9174057 75.24986258 52.88212069 73.87402344 52.88647461 C72.67323151 52.88658791 72.67323151 52.88658791 71.44818115 52.88670349 C70.59387512 52.89186478 69.73956909 52.89702606 68.859375 52.90234375 C67.53610199 52.90446617 67.53610199 52.90446617 66.18609619 52.90663147 C63.37402935 52.91221999 60.5620427 52.92477039 57.75 52.9375 C55.84114698 52.94251648 53.93229272 52.94707913 52.0234375 52.95117188 C47.34892753 52.96218566 42.67447735 52.97944242 38 53 Z " fill="#F8F8F8" transform="translate(1086,466)"/>
<path d="M0 0 C17.510625 -0.061875 17.510625 -0.061875 35.375 -0.125 C39.02224121 -0.14320801 42.66948242 -0.16141602 46.42724609 -0.18017578 C50.97973633 -0.18920898 50.97973633 -0.18920898 53.1300354 -0.19088745 C54.59009023 -0.19390173 56.05014102 -0.20081247 57.51016235 -0.21115112 C100.59317814 -0.500213 100.59317814 -0.500213 114 12 C121.07330647 20.61684581 121.8217984 27.98313745 121 39 C119.04615816 48.2216357 113.57569777 52.94953482 106 58 C106.79664063 58.49306641 106.79664063 58.49306641 107.609375 58.99609375 C113.59975963 63.02976515 115.73267755 66.11405775 118 73 C118.99 78.28 119.98 83.56 121 89 C109.12 89 97.24 89 85 89 C82.848954 84.69790799 81.4230424 81.36645645 80.125 76.875 C78.60105 72.19305475 77.51149695 69.42080324 73 67 C68.90364883 65.04352032 65.47235298 64.70142178 60.94921875 64.5859375 C60.29041214 64.56657135 59.63160553 64.5472052 58.95283508 64.5272522 C56.86451857 64.46784059 54.77614576 64.42122709 52.6875 64.375 C51.26495095 64.33678468 49.84242416 64.29773091 48.41992188 64.2578125 C44.94673552 64.16060379 41.47376403 64.0807358 38 64 C38 72.25 38 80.5 38 89 C25.46 89 12.92 89 0 89 C0 59.63 0 30.26 0 0 Z M38 23 C38 28.94 38 34.88 38 41 C42.67789743 41.06928318 47.35397862 41.12888762 52.03198242 41.16479492 C53.61960926 41.17978013 55.20719543 41.20017546 56.79467773 41.22631836 C69.1998184 41.48670105 69.1998184 41.48670105 81 38 C83.42144512 36.00314251 83.42144512 36.00314251 83.375 32.0625 C83.27691455 28.80991144 83.27691455 28.80991144 81.5 26.125 C75.46511858 23.40930336 69.55425895 22.7052718 63 22.8046875 C62.2788501 22.8075174 61.5577002 22.81034729 60.81469727 22.81326294 C58.54295253 22.82433304 56.27162273 22.84941105 54 22.875 C52.44662033 22.8850469 50.8932344 22.89416973 49.33984375 22.90234375 C45.55961282 22.92251574 41.78026312 22.96168652 38 23 Z " fill="#F8F8F8" transform="translate(1228,466)"/>
<path d="M0 0 C0.95018005 0.00359528 1.90036011 0.00719055 2.8793335 0.01089478 C4.37184883 0.01067574 4.37184883 0.01067574 5.89451599 0.01045227 C9.20059348 0.01115186 12.5066154 0.01894637 15.81268311 0.02676392 C18.09811879 0.02862793 20.38355487 0.03005191 22.66899109 0.03105164 C28.69751073 0.03487809 34.72600644 0.04470947 40.7545166 0.05575562 C46.90085527 0.06596699 53.04719778 0.07054867 59.19354248 0.07559204 C71.26321616 0.08633162 83.33286578 0.10392945 95.40252686 0.12442017 C95.40252686 7.71442017 95.40252686 15.30442017 95.40252686 23.12442017 C73.95252686 23.12442017 52.50252686 23.12442017 30.40252686 23.12442017 C30.40252686 27.41442017 30.40252686 31.70442017 30.40252686 36.12442017 C48.55252686 36.12442017 66.70252686 36.12442017 85.40252686 36.12442017 C85.40252686 42.06442017 85.40252686 48.00442017 85.40252686 54.12442017 C67.25252686 54.12442017 49.10252686 54.12442017 30.40252686 54.12442017 C30.40252686 58.41442017 30.40252686 62.70442017 30.40252686 67.12442017 C53.50252686 67.12442017 76.60252686 67.12442017 100.40252686 67.12442017 C100.40252686 74.38442017 100.40252686 81.64442017 100.40252686 89.12442017 C64.76252686 89.12442017 29.12252686 89.12442017 -7.59747314 89.12442017 C-7.61809814 74.62504517 -7.63872314 60.12567017 -7.65997314 45.18692017 C-7.66907715 40.60180542 -7.67818115 36.01669067 -7.68756104 31.29263306 C-7.69207764 25.71121216 -7.69207764 25.71121216 -7.69291687 23.10169983 C-7.69445657 21.27174131 -7.69798202 19.44178382 -7.70304871 17.61183167 C-7.710325 14.84655992 -7.7113806 12.08135038 -7.71099854 9.31607056 C-7.71459664 8.49525277 -7.71819475 7.67443499 -7.72190189 6.82874393 C-7.70862228 -0.30777077 -7.05353465 0.01127971 0 0 Z " fill="#F6F6F6" transform="translate(1370.5974731445313,465.8755798339844)"/>
<path d="M0 0 C6.33487578 6.00964779 10.57565312 13.48349053 11.25 22.25 C10.81841782 28.72373265 9.28414576 33.16805083 4.5 37.6875 C-3.582134 44.02367781 -12.72869617 46.76497416 -22.6875 48.625 C-23.72753174 48.8310083 -24.76756348 49.0370166 -25.83911133 49.24926758 C-30.53190609 50.17245815 -35.23340773 51.046636 -39.9375 51.91015625 C-40.66493408 52.04405762 -41.39236816 52.17795898 -42.1418457 52.31591797 C-44.04467868 52.66155728 -45.94999464 52.99344955 -47.85546875 53.32421875 C-51.37977865 53.98949356 -51.37977865 53.98949356 -56 56 C-24.32 56.495 -24.32 56.495 8 57 C8 64.26 8 71.52 8 79 C-26.65 79 -61.3 79 -97 79 C-97 48.74300254 -97 48.74300254 -91.46484375 42.1796875 C-80.80721717 33.07573027 -67.31598348 30.86990521 -54 28 C-53.09894531 27.80486816 -52.19789062 27.60973633 -51.26953125 27.40869141 C-44.19103505 25.88319797 -37.10262744 24.40925148 -30 23 C-30.3344026 19.90677596 -30.5595118 18.41112232 -32.875 16.25 C-37.9500662 13.26466694 -43.28045915 13.52677123 -49 14 C-53.36936489 15.51869973 -53.36936489 15.51869973 -56 19 C-69.53 19 -83.06 19 -97 19 C-93.69915168 7.99717225 -90.33986427 1.26221128 -80.4921875 -4.72265625 C-57.80233637 -16.35209405 -20.30283192 -16.5357049 0 0 Z " fill="#F9F9F9" transform="translate(1145,652)"/>
<path d="M0 0 C6.75098343 6.28279442 10.16767563 13.33214643 10.5625 22.5625 C10.33693496 28.6104627 9.24453126 32.62502215 5 37 C-5.84603147 46.83873265 -22.24575077 48.90271081 -36.1875 51.1875 C-38.40030335 51.55650193 -40.61235954 51.92901211 -42.82331848 52.30891418 C-44.79910192 52.64759319 -46.77682179 52.97491903 -48.75463867 53.30151367 C-52.23380203 53.90939473 -52.23380203 53.90939473 -56 56 C-35.21 56.33 -14.42 56.66 7 57 C7 64.26 7 71.52 7 79 C-27.32 79 -61.64 79 -97 79 C-97 48.48854962 -97 48.48854962 -91.46484375 42.27734375 C-79.66483697 31.92593115 -63.43448234 29.94532933 -48.55859375 26.8671875 C-47.69685547 26.68873291 -46.83511719 26.51027832 -45.94726562 26.32641602 C-44.3132574 25.99182581 -42.67787808 25.66384131 -41.04101562 25.34350586 C-37.43132755 24.61754169 -34.17699957 23.91294139 -31 22 C-31.03093173 19.58414426 -31.03093173 19.58414426 -32 17 C-37.05935115 13.13891623 -42.91171309 13.31246686 -49 14 C-52.45128672 15.33207558 -54.40996081 16.40996081 -57 19 C-60.01308951 19.17546482 -62.93310454 19.23127445 -65.9453125 19.1953125 C-66.8303244 19.1924826 -67.7153363 19.18965271 -68.62716675 19.18673706 C-71.45991412 19.1755224 -74.29234784 19.1504157 -77.125 19.125 C-79.04296419 19.11497185 -80.96093333 19.10584572 -82.87890625 19.09765625 C-87.58605876 19.07557889 -92.29297616 19.04104045 -97 19 C-95.66115563 10.13957517 -91.31166711 3.18969284 -84.33203125 -2.46875 C-62.16614755 -17.0232331 -20.69413987 -17.11483536 0 0 Z " fill="#FAFAFA" transform="translate(911,652)"/>
<path d="M0 0 C9.54283442 9.93306185 12.54332916 21.55620885 12.7890625 35 C12.15908233 47.67674382 8.74668028 58.7768402 -0.2109375 68 C-15.62583116 80.86484619 -35.10909753 81.22072696 -54.2109375 80 C-63.19884033 78.89831116 -71.73691133 76.20282425 -79.2109375 71 C-80.7578125 69.948125 -80.7578125 69.948125 -82.3359375 68.875 C-89.85620639 62.19264408 -94.45669503 52.20727811 -95.49389648 42.29614258 C-95.61099687 39.52410667 -95.62090526 36.77410922 -95.5859375 34 C-95.60333984 32.61941406 -95.60333984 32.61941406 -95.62109375 31.2109375 C-95.57210985 19.61808052 -91.95433739 9.50690742 -84.2421875 0.76953125 C-76.53870606 -6.66879413 -66.69734543 -10.41059671 -56.2109375 -12 C-55.42976562 -12.12246094 -54.64859375 -12.24492188 -53.84375 -12.37109375 C-35.63180945 -14.61298917 -14.08754612 -12.74350462 0 0 Z M-53.2109375 16 C-58.22813125 22.73275033 -58.64409287 30.8754388 -57.95703125 39.00390625 C-57.13180569 44.46823763 -56.0581606 48.8408399 -52.2109375 53 C-47.45196925 55.69375561 -43.64484567 56.66732206 -38.2109375 56 C-33.59531922 54.6205201 -30.2151635 52.74648 -27.7734375 48.5 C-24.15502515 39.83189218 -24.53998538 29.87445383 -27.2109375 21 C-29.47781023 16.62259058 -31.5619796 13.78045196 -36.2109375 12 C-42.82033239 11.18140522 -48.21752535 11.12837839 -53.2109375 16 Z " fill="#F9F9F9" transform="translate(1026.2109375,653)"/>
<path d="M0 0 C4.6598256 5.37813863 7.68857218 11.30876394 8.9765625 18.28125 C3.4265928 18.45516434 -2.1217689 18.58172214 -7.67382812 18.66577148 C-9.55952606 18.70082944 -11.44503569 18.7484919 -13.33007812 18.80932617 C-31.04315639 19.36637065 -31.04315639 19.36637065 -35.9296875 14.87890625 C-36.96383044 13.68218133 -37.99553125 12.48333607 -39.0234375 11.28125 C-46.254739 7.94160312 -56.04671799 7.94131641 -63.5859375 10.46875 C-69.35500423 13.51062155 -72.68247856 17.19475676 -75.0234375 23.28125 C-76.69261709 29.95796837 -76.15865406 36.11260962 -73.0234375 42.28125 C-69.30709798 46.90110325 -65.03885407 50.03354943 -59.15234375 51.0703125 C-51.67876326 51.81081405 -44.83729459 51.79639994 -38.0234375 48.28125 C-36.98823626 47.09796924 -35.97111111 45.89872549 -34.96875 44.6875 C-28.39058638 38.76929896 -18.78840446 40.56243782 -10.5234375 40.84375 C-8.72922741 40.878902 -6.93495118 40.91083418 -5.140625 40.93945312 C-0.7665836 41.01619024 3.60425632 41.13675557 7.9765625 41.28125 C8.9765625 43.28125 8.9765625 43.28125 8.2265625 45.8203125 C3.51720511 57.44653856 -2.67559224 64.65523745 -14.0234375 70.28125 C-36.66583524 79.24398402 -65.59314927 79.62578027 -88.3984375 71.03125 C-99.33302096 66.09967947 -107.93182641 58.21234746 -112.4609375 46.96875 C-116.10870086 34.72044113 -115.80540965 19.33940877 -109.8046875 7.97265625 C-102.88658444 -3.42299685 -92.62468867 -10.12489663 -79.92089844 -13.43383789 C-54.08437093 -19.68746491 -20.48067028 -19.36354281 0 0 Z " fill="#F7F7F7" transform="translate(928.0234375,480.71875)"/>
<path d="M0 0 C0.80991898 0.00359528 1.61983795 0.00719055 2.45429993 0.01089478 C3.30300659 0.01074875 4.15171326 0.01060272 5.02613831 0.01045227 C7.84523532 0.01115168 10.66426712 0.01894539 13.48335266 0.02676392 C15.43248458 0.028628 17.38161696 0.03005195 19.33074951 0.03105164 C24.47151473 0.03487761 29.61225188 0.04470858 34.75300598 0.05575562 C39.99449789 0.06596802 45.23599431 0.07054889 50.47749329 0.07559204 C60.76982533 0.08633078 71.06212915 0.10392822 81.35444641 0.12442017 C81.35444641 7.71442017 81.35444641 15.30442017 81.35444641 23.12442017 C60.56444641 23.12442017 39.77444641 23.12442017 18.35444641 23.12442017 C18.02444641 25.76442017 17.69444641 28.40442017 17.35444641 31.12442017 C18.3058551 31.10870972 19.25726379 31.09299927 20.23750305 31.07681274 C23.8438586 31.02158397 27.45017883 30.98774077 31.05683899 30.95962524 C32.60345286 30.94474627 34.15002619 30.92443653 35.69648743 30.89810181 C52.20319523 30.62450996 69.64444523 31.69602658 82.41694641 43.56192017 C88.32014319 50.21381508 88.93099339 56.00809726 88.69038391 64.75332642 C87.90255992 72.6590486 84.04031099 77.28352514 78.03804016 82.30020142 C65.93128345 90.52997635 51.3693196 91.48362934 37.1945343 91.44009399 C35.05525886 91.43693979 32.91737974 91.46046104 30.77827454 91.48574829 C14.45009155 91.5600389 -1.37539093 89.06239306 -13.57133484 77.44082642 C-16.97931169 73.63493136 -18.64555359 70.33234816 -18.64555359 65.12442017 C-13.28878728 65.00088727 -7.93284833 64.91011444 -2.57499695 64.84976196 C-0.75225892 64.8246062 1.07037813 64.79047732 2.89277649 64.7472229 C5.51176334 64.68661471 8.12941794 64.65822256 10.74897766 64.63613892 C11.56469742 64.61033249 12.38041718 64.58452606 13.22085571 64.55793762 C15.52558899 64.55679321 15.52558899 64.55679321 19.35444641 65.12442017 C21.25337219 67.57388306 21.25337219 67.57388306 22.35444641 70.12442017 C26.37298967 72.46915894 30.21225157 72.39286808 34.79194641 72.37442017 C36.06940735 72.37957642 37.34686829 72.38473267 38.66304016 72.39004517 C42.28666401 72.12929763 45.04804296 71.62053033 48.35444641 70.12442017 C49.40844358 66.96242866 49.58890554 64.5098183 49.66694641 61.18692017 C49.70432922 60.14664673 49.74171204 59.10637329 49.78022766 58.03457642 C49.25428336 54.43981952 48.1482499 53.3584263 45.35444641 51.12442017 C42.25621 49.57530196 39.0021125 49.8987762 35.60444641 49.87442017 C34.90061829 49.85379517 34.19679016 49.83317017 33.47163391 49.81192017 C28.72283094 49.77661308 25.42214266 50.42074182 21.35444641 53.12442017 C20.69444641 54.44442017 20.03444641 55.76442017 19.35444641 57.12442017 C6.81444641 57.12442017 -5.72555359 57.12442017 -18.64555359 57.12442017 C-17.36657511 49.45054929 -16.02827599 41.92705421 -14.29789734 34.36270142 C-14.08113846 33.40542648 -13.86437958 32.44815155 -13.64105225 31.46186829 C-13.18811965 29.46594171 -12.73347241 27.47040349 -12.27714539 25.47525024 C-11.57622429 22.40702549 -10.88305116 19.33711634 -10.19047546 16.26699829 C-9.74757471 14.3196283 -9.30423187 12.3723588 -8.86039734 10.42520142 C-8.65309494 9.50556107 -8.44579254 8.58592072 -8.23220825 7.63841248 C-8.03853165 6.79630722 -7.84485504 5.95420197 -7.64530945 5.08657837 C-7.47591354 4.34333817 -7.30651764 3.60009796 -7.13198853 2.83433533 C-6.05677226 -0.94526283 -3.47449952 0.00651245 0 0 Z " fill="#F6F6F6" transform="translate(1183.6455535888672,641.8755798339844)"/>
<path d="M0 0 C0.82712494 -0.0013797 1.65424988 -0.0027594 2.50643921 -0.00418091 C18.02585573 0.14172214 18.02585573 0.14172214 22.66796875 4.85546875 C25.19061949 8.56263408 26.70276005 12.66840881 28.2265625 16.86572266 C30.34443716 21.95420468 33.59041485 26.34099976 36.6875 30.875 C37.9809213 32.83828116 39.26997609 34.80444584 40.5546875 36.7734375 C41.19245117 37.74764648 41.83021484 38.72185547 42.48730469 39.72558594 C46.03716968 45.17801696 49.52019805 50.67273229 53.00366211 56.16772461 C56.25632614 61.29779621 59.52269533 66.41852206 62.80859375 71.52734375 C63.55543618 72.68960544 64.30226247 73.8518775 65.04907227 75.01416016 C66.4965033 77.26662462 67.94664684 79.51726698 69.39819336 81.76708984 C70.04796143 82.77852051 70.69772949 83.78995117 71.3671875 84.83203125 C72.23899658 86.18518433 72.23899658 86.18518433 73.12841797 87.56567383 C74.375 89.625 74.375 89.625 74.375 90.625 C61.505 90.625 48.635 90.625 35.375 90.625 C33.065 86.335 30.755 82.045 28.375 77.625 C9.895 77.625 -8.585 77.625 -27.625 77.625 C-29.935 81.915 -32.245 86.205 -34.625 90.625 C-47.495 90.625 -60.365 90.625 -73.625 90.625 C-69.83457517 83.6758878 -66.10114959 77.05466502 -61.75 70.5 C-60.60200101 68.75186889 -59.45490792 67.00314262 -58.30859375 65.25390625 C-57.70901855 64.34012207 -57.10944336 63.42633789 -56.49169922 62.48486328 C-53.23179643 57.49055237 -50.02300928 52.46365091 -46.8125 47.4375 C-45.81827026 45.88180298 -45.81827026 45.88180298 -44.80395508 44.29467773 C-43.44301728 42.16499089 -42.08226071 40.03518823 -40.72167969 37.90527344 C-38.5587862 34.52140794 -36.39316903 31.13930105 -34.2265625 27.7578125 C-33.5010516 26.62524821 -32.77554697 25.49267989 -32.05004883 24.36010742 C-30.6803615 22.22207821 -29.31042257 20.08421016 -27.94018555 17.9465332 C-27.31668213 16.97288818 -26.69317871 15.99924316 -26.05078125 14.99609375 C-25.14005859 13.62179199 -25.14005859 13.62179199 -24.2109375 12.21972656 C-22.58202373 9.72649252 -22.58202373 9.72649252 -21.6796875 7.19433594 C-18.10955258 -1.36709277 -7.96542169 -0.04208309 0 0 Z M-0.625 28.625 C-2.79857444 32.41274694 -4.9626772 36.20582029 -7.125 40 C-7.74503906 41.08023438 -8.36507813 42.16046875 -9.00390625 43.2734375 C-9.88369141 44.8203125 -9.88369141 44.8203125 -10.78125 46.3984375 C-11.32587891 47.35153809 -11.87050781 48.30463867 -12.43164062 49.28662109 C-13.77652123 51.48435721 -13.77652123 51.48435721 -13.625 53.625 C-4.385 53.625 4.855 53.625 14.375 53.625 C12.27643813 48.37859532 9.70212656 43.7475928 6.875 38.875 C6.37613281 37.99972656 5.87726563 37.12445313 5.36328125 36.22265625 C4.88246094 35.39121094 4.40164063 34.55976563 3.90625 33.703125 C3.46861328 32.94418945 3.03097656 32.18525391 2.58007812 31.40332031 C1.48616589 29.47660109 1.48616589 29.47660109 -0.625 28.625 Z " fill="#F8F8F8" transform="translate(1780.625,464.375)"/>
<path d="M0 0 C39.02702593 -3.12280265 39.02702593 -3.12280265 48.5859375 3.76171875 C52.44895695 7.35143614 55.61104464 11.32708821 58.49414062 15.73486328 C60.71951116 19.08229969 63.33714231 21.99419852 66 25 C69.26425442 23.56981588 71.42825857 21.8178207 73.93359375 19.296875 C74.66513672 18.56339844 75.39667969 17.82992188 76.15039062 17.07421875 C76.90513672 16.30722656 77.65988281 15.54023438 78.4375 14.75 C79.18837891 13.99847656 79.93925781 13.24695313 80.71289062 12.47265625 C85.25756363 7.89927758 85.25756363 7.89927758 89.14941406 2.77197266 C92.64475038 -0.6269695 94.2698701 -0.68231334 98.970047 -0.67977905 C100.30938545 -0.63332748 100.30938545 -0.63332748 101.67578125 -0.5859375 C102.6009404 -0.57744781 103.52609955 -0.56895813 104.47929382 -0.56021118 C107.42489671 -0.52670961 110.36772928 -0.4514376 113.3125 -0.375 C115.31311141 -0.34489615 117.31376588 -0.31752108 119.31445312 -0.29296875 C124.21069758 -0.22692892 129.10487966 -0.12343033 134 0 C132.90422771 3.28731688 132.22195399 3.88003756 129.625 6 C124.10384123 10.68461956 119.07870134 15.84879511 114 21 C103.49917367 31.65073616 103.49917367 31.65073616 98.8125 35.6875 C98.18859375 36.24630859 97.5646875 36.80511719 96.921875 37.38085938 C95 39 95 39 92.765625 40.44726562 C89.50609149 42.88324678 87.40908407 45.0300681 86.55810547 49.12792969 C85.81781265 55.56783345 85.93256483 62.02836446 86 68.5 C85.99190171 70.48699722 85.9802186 72.47398326 85.96484375 74.4609375 C85.92841902 79.30947422 85.9659608 84.14941353 86 89 C73.46 89 60.92 89 48 89 C48.32677734 84.88724609 48.32677734 84.88724609 48.66015625 80.69140625 C50.40019566 58.46479034 50.40019566 58.46479034 41.6484375 38.890625 C36.64546048 33.4014818 30.89772035 28.65562775 24.95849609 24.21582031 C18.29978698 19.22865709 12.35514307 13.51783712 6.5 7.625 C5.86835937 6.99722656 5.23671875 6.36945313 4.5859375 5.72265625 C3.99039063 5.12582031 3.39484375 4.52898437 2.78125 3.9140625 C2.24564453 3.3773291 1.71003906 2.8405957 1.15820312 2.28759766 C0 1 0 1 0 0 Z " fill="#F7F7F7" transform="translate(942,466)"/>
<path d="M0 0 C12.54 0 25.08 0 38 0 C38 22.11 38 44.22 38 67 C59.78 67 81.56 67 104 67 C104 74.26 104 81.52 104 89 C69.68 89 35.36 89 0 89 C0 59.63 0 30.26 0 0 Z " fill="#F9F9F9" transform="translate(1600,466)"/>
<path d="M0 0 C12.21 0 24.42 0 37 0 C38 1 38 1 38.12025452 3.62586975 C38.11803391 4.79613205 38.11581329 5.96639435 38.11352539 7.17211914 C38.11364593 7.82644393 38.11376646 8.48076872 38.11389065 9.15492153 C38.11314179 11.28170052 38.10551481 13.40839285 38.09765625 15.53515625 C38.09664917 16.83159058 38.09564209 18.1280249 38.09460449 19.46374512 C38.08935257 24.33000568 38.07539147 29.19625368 38.0625 34.0625 C38.041875 44.931875 38.02125 55.80125 38 67 C59.78 67 81.56 67 104 67 C104 74.26 104 81.52 104 89 C69.68 89 35.36 89 0 89 C0 59.63 0 30.26 0 0 Z " fill="#F9F9F9" transform="translate(1485,466)"/>
<path d="M0 0 C-0.50563438 4.49452781 -2.08903789 6.6542176 -5.0625 10 C-17.35798907 24.61062072 -24.92386584 41.78614332 -30.01025391 60.07080078 C-30.5878379 62.07391124 -31.28400154 64.04209271 -32 66 C-33.485 66.495 -33.485 66.495 -35 67 C-39.84571974 58.73844503 -41.97172389 50.25649539 -44 41 C-44.19980469 40.13632813 -44.39960938 39.27265625 -44.60546875 38.3828125 C-45.06382668 35.61451212 -45.0962873 32.99184564 -45.0625 30.1875 C-45.05347656 29.21167969 -45.04445313 28.23585937 -45.03515625 27.23046875 C-45.02355469 26.49441406 -45.01195312 25.75835937 -45 25 C-44.21238281 24.94585937 -43.42476563 24.89171875 -42.61328125 24.8359375 C-32.41366814 23.41161283 -28.46121005 18.95516398 -22.015625 11.40234375 C-16.46753659 4.93366545 -8.81342142 -0.50362408 0 0 Z " fill="#EBEBEB" transform="translate(391,205)"/>
<path d="M0 0 C0.99 0.33 1.98 0.66 3 1 C2.67 2.98 2.34 4.96 2 7 C1.34 5.68 0.68 4.36 0 3 C-1.32 4.32 -2.64 5.64 -4 7 C-4.66 6.67 -5.32 6.34 -6 6 C-2.25 1.125 -2.25 1.125 0 0 Z " fill="#B3B3B3" transform="translate(329,191)"/>
<path d="M0 0 C5.75 1.75 5.75 1.75 8 4 C5.6875 4.6875 5.6875 4.6875 3 5 C1.1875 3.6875 1.1875 3.6875 0 2 C0 1.34 0 0.68 0 0 Z " fill="#A9A9A9" transform="translate(489,491)"/>
</svg>
